<svg width="52" height="10" viewBox="0 0 52 10" fill="none" xmlns="http://www.w3.org/2000/svg">
<path d="M0.977579 0.751007C0.840064 0.76339 0.738625 0.884906 0.751007 1.02242L0.952798 3.26335C0.965181 3.40087 1.0867 3.50231 1.22421 3.48993C1.36173 3.47754 1.46317 3.35603 1.45078 3.21851L1.27141 1.22657L3.26335 1.0472C3.40087 1.03482 3.50231 0.913303 3.48993 0.775788C3.47754 0.638274 3.35603 0.536834 3.21851 0.549217L0.977579 0.751007ZM51.249 1.02242C51.2614 0.884906 51.1599 0.76339 51.0224 0.751007L48.7815 0.549217C48.644 0.536834 48.5225 0.638274 48.5101 0.775788C48.4977 0.913303 48.5991 1.03482 48.7366 1.0472L50.7286 1.22657L50.5492 3.21851C50.5368 3.35603 50.6383 3.47754 50.7758 3.48993C50.9133 3.50231 51.0348 3.40087 51.0472 3.26335L51.249 1.02242ZM1 1C0.83979 1.19192 0.839901 1.19201 0.840048 1.19213C0.840146 1.19222 0.84033 1.19237 0.840526 1.19253C0.840917 1.19286 0.841455 1.1933 0.842139 1.19387C0.843507 1.19501 0.845459 1.19662 0.847994 1.19871C0.853063 1.20289 0.860462 1.20896 0.870177 1.21687C0.889606 1.23268 0.918298 1.25581 0.956138 1.2858C1.03182 1.34576 1.14409 1.43309 1.29206 1.54387C1.58797 1.76543 2.02666 2.08086 2.60082 2.45882C3.74905 3.21468 5.43958 4.221 7.61378 5.22689C11.962 7.23861 18.2479 9.25 26 9.25V8.75C18.3354 8.75 12.1213 6.76139 7.82372 4.77311C5.67501 3.779 4.00616 2.78532 2.87574 2.04118C2.31058 1.66914 1.88013 1.35957 1.59173 1.14363C1.44754 1.03566 1.33887 0.95112 1.26664 0.893892C1.23053 0.865279 1.20352 0.843496 1.18575 0.829032C1.17686 0.8218 1.17028 0.816397 1.16602 0.812885C1.16388 0.811129 1.16233 0.809845 1.16137 0.809042C1.16088 0.808641 1.16054 0.808359 1.16035 0.808199C1.16025 0.808119 1.16022 0.808089 1.16017 0.808049C1.16017 0.80805 1.16021 0.808082 1 1ZM26 9.25C33.7521 9.25 40.038 7.23861 44.3862 5.22689C46.5604 4.221 48.2509 3.21468 49.3992 2.45882C49.9733 2.08086 50.412 1.76543 50.7079 1.54387C50.8559 1.43309 50.9682 1.34576 51.0439 1.2858C51.0817 1.25581 51.1104 1.23268 51.1298 1.21687C51.1395 1.20896 51.1469 1.20289 51.152 1.19871C51.1545 1.19662 51.1565 1.19501 51.1579 1.19387C51.1585 1.1933 51.1591 1.19286 51.1595 1.19253C51.1597 1.19237 51.1599 1.19222 51.16 1.19213C51.1601 1.19201 51.1602 1.19192 51 1C50.8398 0.808082 50.8398 0.80805 50.8398 0.808049C50.8398 0.808089 50.8397 0.808119 50.8396 0.808199C50.8395 0.808359 50.8391 0.808641 50.8386 0.809042C50.8377 0.809845 50.8361 0.811129 50.834 0.812885C50.8297 0.816397 50.8231 0.8218 50.8143 0.829032C50.7965 0.843496 50.7695 0.865279 50.7334 0.893892C50.6611 0.95112 50.5525 1.03566 50.4083 1.14363C50.1199 1.35957 49.6894 1.66914 49.1243 2.04118C47.9938 2.78532 46.325 3.779 44.1763 4.77311C39.8787 6.76139 33.6646 8.75 26 8.75V9.25Z" fill="#FAFAFA"/>
</svg>
