<svg width="10" height="10" viewBox="0 0 10 10" fill="none" xmlns="http://www.w3.org/2000/svg">
<path fill-rule="evenodd" clip-rule="evenodd" d="M8.41763 1.49112C7.56296 0.636449 6.17727 0.636449 5.3226 1.49112L3.99821 2.81551V2.81551C3.86964 2.94409 3.97667 3.14213 4.15834 3.13434L4.90178 3.10244C5.05211 3.09599 5.19455 3.03338 5.30095 2.92698L6.02971 2.19822C6.49385 1.73408 7.24638 1.73408 7.71052 2.19822C8.17467 2.66237 8.17467 3.41489 7.71052 3.87904L6.63505 4.95451C6.63365 4.95591 6.63293 4.95785 6.63307 4.95983V4.95983C6.63334 4.96368 6.63038 4.96699 6.62653 4.96715L6.62534 4.9672C6.62334 4.96729 6.62144 4.96812 6.62002 4.96954L6.38613 5.20343C5.92199 5.66757 5.16946 5.66757 4.70532 5.20343V5.20343C4.61928 5.11738 4.50594 5.05813 4.38437 5.06334L4.26757 5.06836C3.87916 5.08502 3.62329 5.47988 3.87468 5.77643C3.91366 5.82241 3.95483 5.86715 3.99821 5.91053C4.85288 6.7652 6.23857 6.7652 7.09324 5.91053L8.41763 4.58614C9.2723 3.73148 9.2723 2.34579 8.41763 1.49112Z" fill="#FAFAFA"/>
<path fill-rule="evenodd" clip-rule="evenodd" d="M5.42237 4.89959C5.83769 4.88545 6.10075 4.45569 5.80929 4.15949C5.80502 4.15516 5.80074 4.15084 5.79643 4.14653C4.92996 3.28005 3.52512 3.28005 2.65865 4.14653L1.37702 5.42816C0.510539 6.29464 0.510539 7.69947 1.37702 8.56595C2.24349 9.43242 3.64833 9.43242 4.5148 8.56595L5.79643 7.28432V7.28432C5.89902 7.18172 5.8163 7.02071 5.67129 7.02564L4.83489 7.05411C4.6869 7.05915 4.54634 7.12019 4.44164 7.2249L3.8077 7.85884C3.33174 8.33479 2.56007 8.33479 2.08412 7.85884C1.60817 7.38289 1.60817 6.61122 2.08412 6.13527L3.36575 4.85364C3.8417 4.37769 4.61337 4.37769 5.08933 4.85364V4.85364C5.12345 4.88776 5.16946 4.90819 5.21769 4.90655L5.42237 4.89959Z" fill="#FAFAFA"/>
</svg>
