<svg width="16" height="16" viewBox="0 0 16 16" fill="none" xmlns="http://www.w3.org/2000/svg">
<g clip-path="url(#clip0_513_206)">
<circle cx="8" cy="8" r="8" fill="#030101"/>
<path d="M8.368 11.608C7.768 11.608 6.988 11.568 6.028 11.488L6.112 9.292H6.784L6.976 10.636C7.288 10.684 7.608 10.728 7.936 10.768C8.272 10.8 8.548 10.816 8.764 10.816C8.812 10.816 8.876 10.764 8.956 10.66C9.036 10.556 9.108 10.432 9.172 10.288C9.236 10.136 9.268 9.992 9.268 9.856C9.268 9.544 9.152 9.284 8.92 9.076C8.696 8.868 8.348 8.632 7.876 8.368C7.5 8.152 7.196 7.96 6.964 7.792C6.732 7.624 6.532 7.412 6.364 7.156C6.204 6.9 6.124 6.604 6.124 6.268C6.124 6.044 6.144 5.836 6.184 5.644C6.28 5.468 6.46 5.264 6.724 5.032C6.988 4.8 7.26 4.6 7.54 4.432C7.82 4.256 8.028 4.168 8.164 4.168C8.228 4.168 8.7 4.212 9.58 4.3C9.676 4.308 9.776 4.316 9.88 4.324C9.984 4.332 10.088 4.344 10.192 4.36L10.108 6.436H9.436L9.256 5.212C9 5.164 8.696 5.12 8.344 5.08C8 5.032 7.74 5.008 7.564 5.008C7.46 5.008 7.372 5.08 7.3 5.224C7.228 5.36 7.192 5.576 7.192 5.872C7.192 6.192 7.304 6.46 7.528 6.676C7.752 6.892 8.084 7.124 8.524 7.372C8.956 7.62 9.288 7.828 9.52 7.996C9.76 8.156 9.968 8.364 10.144 8.62C10.32 8.876 10.408 9.184 10.408 9.544C10.408 9.744 10.384 9.94 10.336 10.132C10.24 10.332 10.064 10.548 9.808 10.78C9.552 11.012 9.284 11.208 9.004 11.368C8.732 11.528 8.52 11.608 8.368 11.608Z" fill="#FF0000"/>
</g>
<defs>
<clipPath id="clip0_513_206">
<rect width="16" height="16" fill="white"/>
</clipPath>
</defs>
</svg>
